%FSLAX34Y34*%
G04 Gerber Fmt 3.4, Leading zero omitted, Abs format*
G04 (created by PCBNEW (2014-01-25 BZR 4633)-product) date Thu 30 Jan 2014 08:02:40 PM EST*
%MOIN*%
G01*
G70*
G90*
G04 APERTURE LIST*
%ADD10C,0.005906*%
%ADD11C,0.003000*%
%ADD12C,0.005000*%
%ADD13C,0.015000*%
G04 APERTURE END LIST*
G54D10*
G54D11*
X79722Y-49220D02*
X79751Y-49205D01*
X79794Y-49205D01*
X79837Y-49220D01*
X79865Y-49248D01*
X79879Y-49277D01*
X79894Y-49334D01*
X79894Y-49377D01*
X79879Y-49434D01*
X79865Y-49462D01*
X79837Y-49491D01*
X79794Y-49505D01*
X79765Y-49505D01*
X79722Y-49491D01*
X79708Y-49477D01*
X79708Y-49377D01*
X79765Y-49377D01*
X79437Y-49505D02*
X79579Y-49505D01*
X79579Y-49205D01*
G54D12*
X71340Y-47980D02*
X71560Y-47980D01*
X71340Y-47720D02*
X71560Y-47720D01*
X71340Y-47640D02*
X71560Y-47640D01*
X71560Y-47640D02*
X71560Y-48060D01*
X71560Y-48060D02*
X71340Y-48060D01*
X71340Y-48060D02*
X71340Y-47640D01*
X73840Y-42340D02*
X73840Y-43140D01*
X72540Y-42340D02*
X72540Y-43140D01*
X74090Y-42340D02*
X74090Y-43140D01*
X74090Y-43140D02*
X72290Y-43140D01*
X72290Y-43140D02*
X72290Y-42340D01*
X72290Y-42340D02*
X74090Y-42340D01*
G54D13*
X69900Y-46800D02*
X69500Y-46800D01*
X69900Y-46800D02*
X70300Y-46800D01*
X69900Y-45900D02*
X69500Y-45900D01*
X69900Y-45900D02*
X70300Y-45900D01*
X74968Y-42317D02*
X74968Y-42081D01*
X74968Y-42081D02*
X77252Y-42081D01*
X77252Y-42081D02*
X77252Y-42317D01*
X77252Y-43183D02*
X77252Y-43419D01*
X77252Y-43419D02*
X74968Y-43419D01*
X74968Y-43419D02*
X74968Y-43183D01*
G54D12*
X76450Y-45190D02*
X76450Y-43740D01*
X76450Y-43740D02*
X77250Y-43740D01*
X77250Y-43740D02*
X77250Y-45190D01*
X75450Y-45190D02*
X75450Y-43740D01*
X75450Y-43740D02*
X76250Y-43740D01*
X76250Y-43740D02*
X76250Y-45190D01*
X74450Y-45190D02*
X74450Y-43740D01*
X74450Y-43740D02*
X75250Y-43740D01*
X75250Y-43740D02*
X75250Y-45190D01*
X73750Y-45190D02*
X77950Y-45190D01*
X77950Y-45190D02*
X77950Y-49190D01*
X77950Y-49190D02*
X73750Y-49190D01*
X73750Y-49190D02*
X73750Y-45190D01*
G54D11*
X71030Y-47967D02*
X71044Y-47981D01*
X71087Y-47995D01*
X71115Y-47995D01*
X71158Y-47981D01*
X71187Y-47952D01*
X71201Y-47924D01*
X71215Y-47867D01*
X71215Y-47824D01*
X71201Y-47767D01*
X71187Y-47738D01*
X71158Y-47710D01*
X71115Y-47695D01*
X71087Y-47695D01*
X71044Y-47710D01*
X71030Y-47724D01*
X70930Y-47695D02*
X70744Y-47695D01*
X70844Y-47810D01*
X70801Y-47810D01*
X70772Y-47824D01*
X70758Y-47838D01*
X70744Y-47867D01*
X70744Y-47938D01*
X70758Y-47967D01*
X70772Y-47981D01*
X70801Y-47995D01*
X70887Y-47995D01*
X70915Y-47981D01*
X70930Y-47967D01*
X73250Y-42227D02*
X73264Y-42241D01*
X73307Y-42255D01*
X73335Y-42255D01*
X73378Y-42241D01*
X73407Y-42212D01*
X73421Y-42184D01*
X73435Y-42127D01*
X73435Y-42084D01*
X73421Y-42027D01*
X73407Y-41998D01*
X73378Y-41970D01*
X73335Y-41955D01*
X73307Y-41955D01*
X73264Y-41970D01*
X73250Y-41984D01*
X72992Y-42055D02*
X72992Y-42255D01*
X73064Y-41941D02*
X73135Y-42155D01*
X72950Y-42155D01*
X69980Y-45575D02*
X70080Y-45432D01*
X70151Y-45575D02*
X70151Y-45275D01*
X70037Y-45275D01*
X70008Y-45290D01*
X69994Y-45304D01*
X69980Y-45332D01*
X69980Y-45375D01*
X69994Y-45404D01*
X70008Y-45418D01*
X70037Y-45432D01*
X70151Y-45432D01*
X69880Y-45275D02*
X69694Y-45275D01*
X69794Y-45390D01*
X69751Y-45390D01*
X69722Y-45404D01*
X69708Y-45418D01*
X69694Y-45447D01*
X69694Y-45518D01*
X69708Y-45547D01*
X69722Y-45561D01*
X69751Y-45575D01*
X69837Y-45575D01*
X69865Y-45561D01*
X69880Y-45547D01*
X76100Y-41945D02*
X76200Y-41802D01*
X76271Y-41945D02*
X76271Y-41645D01*
X76157Y-41645D01*
X76128Y-41660D01*
X76114Y-41674D01*
X76100Y-41702D01*
X76100Y-41745D01*
X76114Y-41774D01*
X76128Y-41788D01*
X76157Y-41802D01*
X76271Y-41802D01*
X75842Y-41745D02*
X75842Y-41945D01*
X75914Y-41631D02*
X75985Y-41845D01*
X75800Y-41845D01*
X76098Y-49385D02*
X76098Y-49628D01*
X76084Y-49657D01*
X76070Y-49671D01*
X76041Y-49685D01*
X75984Y-49685D01*
X75955Y-49671D01*
X75941Y-49657D01*
X75927Y-49628D01*
X75927Y-49385D01*
X75655Y-49385D02*
X75712Y-49385D01*
X75741Y-49400D01*
X75755Y-49414D01*
X75784Y-49457D01*
X75798Y-49514D01*
X75798Y-49628D01*
X75784Y-49657D01*
X75770Y-49671D01*
X75741Y-49685D01*
X75684Y-49685D01*
X75655Y-49671D01*
X75641Y-49657D01*
X75627Y-49628D01*
X75627Y-49557D01*
X75641Y-49528D01*
X75655Y-49514D01*
X75684Y-49500D01*
X75741Y-49500D01*
X75770Y-49514D01*
X75784Y-49528D01*
X75798Y-49557D01*
M02*
